<svg width="100" height="100" viewBox="0 0 100 100" fill="none" xmlns="http://www.w3.org/2000/svg">
<path d="M85.3553 85.3553C92.348 78.3627 97.11 69.4536 99.0393 59.7545C100.969 50.0555 99.9784 40.0021 96.194 30.8658C92.4096 21.7295 86.001 13.9206 77.7785 8.42652C69.5561 2.93245 59.8891 4.51887e-07 50 0C40.1109 -4.51887e-07 30.4439 2.93245 22.2215 8.42652C13.999 13.9206 7.59041 21.7295 3.80602 30.8658C0.0216423 40.0021 -0.968525 50.0555 0.960735 59.7545C2.89 69.4536 7.65203 78.3627 14.6447 85.3553L23.4835 76.5165C18.239 71.272 14.6675 64.5902 13.2206 57.3159C11.7736 50.0416 12.5162 42.5016 15.3545 35.6494C18.1928 28.7971 22.9993 22.9404 29.1661 18.8199C35.333 14.6993 42.5832 12.5 50 12.5C57.4168 12.5 64.667 14.6993 70.8339 18.8199C77.0007 22.9404 81.8072 28.7971 84.6455 35.6494C87.4838 42.5016 88.2264 50.0416 86.7794 57.3159C85.3325 64.5902 81.761 71.272 76.5165 76.5165L85.3553 85.3553Z" fill="#EFE500"/>
<path d="M36.8428 78V73.136L50.0268 52.592C51.0081 51.056 51.9041 49.6267 52.7148 48.304C53.5681 46.9813 54.2508 45.5947 54.7628 44.144C55.3174 42.6507 55.5948 40.944 55.5948 39.024C55.5948 36.6347 55.2108 34.7573 54.4428 33.392C53.6748 32.0267 52.3308 31.344 50.4108 31.344C48.7894 31.344 47.5308 31.792 46.6348 32.688C45.7388 33.584 45.1201 34.7573 44.7788 36.208C44.4374 37.6587 44.2668 39.216 44.2668 40.88V42.608H37.4188V40.816C37.4188 37.7013 37.8241 35.0347 38.6348 32.816C39.4881 30.5547 40.8321 28.8053 42.6667 27.568C44.5441 26.3307 47.0188 25.712 50.0908 25.712C54.2721 25.712 57.3868 26.9067 59.4348 29.296C61.4828 31.6427 62.5068 34.9067 62.5068 39.088C62.5068 41.3067 62.2294 43.248 61.6748 44.912C61.1628 46.576 60.4801 48.1333 59.6268 49.584C58.7734 51.0347 57.8348 52.528 56.8108 54.064L44.9068 72.24H61.2908V78H36.8428Z" fill="black"/>
</svg>
