<svg width="100" height="100" viewBox="0 0 100 100" fill="none" xmlns="http://www.w3.org/2000/svg">
<path d="M85.3553 85.3553C92.348 78.3627 97.11 69.4536 99.0393 59.7545C100.969 50.0555 99.9784 40.0021 96.194 30.8658C92.4096 21.7295 86.001 13.9206 77.7785 8.42652C69.5561 2.93245 59.8891 4.51887e-07 50 0C40.1109 -4.51887e-07 30.4439 2.93245 22.2215 8.42652C13.999 13.9206 7.59041 21.7295 3.80602 30.8658C0.0216423 40.0021 -0.968525 50.0555 0.960735 59.7545C2.89 69.4536 7.65203 78.3627 14.6447 85.3553L23.4835 76.5165C18.239 71.272 14.6675 64.5902 13.2206 57.3159C11.7736 50.0416 12.5162 42.5016 15.3545 35.6494C18.1928 28.7971 22.9993 22.9404 29.1661 18.8199C35.333 14.6993 42.5832 12.5 50 12.5C57.4168 12.5 64.667 14.6993 70.8339 18.8199C77.0007 22.9404 81.8072 28.7971 84.6455 35.6494C87.4838 42.5016 88.2264 50.0416 86.7794 57.3159C85.3325 64.5902 81.761 71.272 76.5165 76.5165L85.3553 85.3553Z" fill="#EE190D"/>
<path d="M51.6313 78V64.112H36.5913V56.944L50.0953 26.16H58.1593V58.032H63.9833V64.112H58.1593V78H51.6313ZM43.1833 58.032H51.6313V34.48L43.1833 58.032Z" fill="black"/>
</svg>
