<svg width="100" height="100" viewBox="0 0 100 100" fill="none" xmlns="http://www.w3.org/2000/svg">
<path d="M85.3553 85.3553C92.348 78.3627 97.11 69.4536 99.0393 59.7545C100.969 50.0555 99.9784 40.0021 96.194 30.8658C92.4096 21.7295 86.001 13.9206 77.7785 8.42652C69.5561 2.93245 59.8891 4.51887e-07 50 0C40.1109 -4.51887e-07 30.4439 2.93245 22.2215 8.42652C13.999 13.9206 7.59041 21.7295 3.80602 30.8658C0.0216423 40.0021 -0.968525 50.0555 0.960735 59.7545C2.89 69.4536 7.65203 78.3627 14.6447 85.3553L23.4835 76.5165C18.239 71.272 14.6675 64.5902 13.2206 57.3159C11.7736 50.0416 12.5162 42.5016 15.3545 35.6494C18.1928 28.7971 22.9993 22.9404 29.1661 18.8199C35.333 14.6993 42.5832 12.5 50 12.5C57.4168 12.5 64.667 14.6993 70.8339 18.8199C77.0007 22.9404 81.8072 28.7971 84.6455 35.6494C87.4838 42.5016 88.2264 50.0416 86.7794 57.3159C85.3325 64.5902 81.761 71.272 76.5165 76.5165L85.3553 85.3553Z" fill="#F38300"/>
<path d="M49.482 78.576C46.666 78.576 44.3193 78.0427 42.442 76.976C40.5647 75.9093 39.1567 74.3733 38.218 72.368C37.2793 70.3627 36.81 67.9947 36.81 65.264V63.536H43.594C43.594 63.7067 43.594 63.8987 43.594 64.112C43.594 64.2827 43.594 64.4747 43.594 64.688C43.6367 66.224 43.8073 67.6107 44.106 68.848C44.4473 70.0853 45.0233 71.0667 45.834 71.792C46.6873 72.5173 47.9033 72.88 49.482 72.88C51.146 72.88 52.4047 72.496 53.258 71.728C54.1113 70.9173 54.6873 69.7867 54.986 68.336C55.2847 66.8853 55.434 65.2213 55.434 63.344C55.434 60.6133 54.922 58.3947 53.898 56.688C52.9167 54.9387 51.1673 53.9787 48.65 53.808C48.522 53.7653 48.3513 53.744 48.138 53.744C47.9673 53.744 47.818 53.744 47.69 53.744V46.896C47.818 46.896 47.9673 46.896 48.138 46.896C48.3087 46.896 48.458 46.896 48.586 46.896C51.018 46.8107 52.7673 46.1707 53.834 44.976C54.9007 43.7813 55.434 41.7973 55.434 39.024C55.434 36.6773 55.0287 34.8 54.218 33.392C53.45 31.984 51.8927 31.28 49.546 31.28C47.1993 31.28 45.642 32.0693 44.874 33.648C44.106 35.184 43.6793 37.168 43.594 39.6C43.594 39.7707 43.594 39.9627 43.594 40.176C43.594 40.3467 43.594 40.5173 43.594 40.688H36.81V38.96C36.81 36.1867 37.2793 33.8187 38.218 31.856C39.1567 29.8933 40.5647 28.3787 42.442 27.312C44.362 26.2453 46.73 25.712 49.546 25.712C52.4047 25.712 54.7727 26.2453 56.65 27.312C58.5273 28.3787 59.9353 29.9147 60.874 31.92C61.8127 33.8827 62.282 36.2507 62.282 39.024C62.282 42.1387 61.5993 44.6347 60.234 46.512C58.9113 48.3893 57.1193 49.6693 54.858 50.352C56.4367 50.8213 57.7593 51.632 58.826 52.784C59.9353 53.936 60.7887 55.408 61.386 57.2C61.9833 58.9493 62.282 60.9973 62.282 63.344C62.282 66.416 61.8553 69.104 61.002 71.408C60.1487 73.6693 58.7833 75.44 56.906 76.72C55.0287 77.9573 52.554 78.576 49.482 78.576Z" fill="black"/>
</svg>
